{
    "asset" : {
        "generator" : "Khronos glTF Blender I/O v1.7.33",
        "version" : "2.0"
    },
    "scene" : 0,
    "scenes" : [
        {
            "name" : "Scene",
            "nodes" : [
                0
            ]
        }
    ],
    "nodes" : [
        {
            "mesh" : 0,
            "name" : "Box_Comp",
            "translation" : [
                0.4367656707763672,
                0,
                1.4618771076202393
            ]
        }
    ],
    "materials" : [
        {
            "doubleSided" : true,
            "name" : "Mat_Box_Comp",
            "pbrMetallicRoughness" : {}
        }
    ],
    "meshes" : [
        {
            "name" : "Cube.017",
            "primitives" : [
                {
                    "attributes" : {
                        "POSITION" : 0,
                        "NORMAL" : 1,
                        "TEXCOORD_0" : 2
                    },
                    "indices" : 3,
                    "material" : 0
                }
            ]
        }
    ],
    "accessors" : [
        {
            "bufferView" : 0,
            "componentType" : 5126,
            "count" : 1322,
            "max" : [
                0.5,
                0.5000000596046448,
                1.9420406616177388e-08
            ],
            "min" : [
                -0.5,
                -0.5000000596046448,
                -1.0557129383087158
            ],
            "type" : "VEC3"
        },
        {
            "bufferView" : 1,
            "componentType" : 5126,
            "count" : 1322,
            "type" : "VEC3"
        },
        {
            "bufferView" : 2,
            "componentType" : 5126,
            "count" : 1322,
            "type" : "VEC2"
        },
        {
            "bufferView" : 3,
            "componentType" : 5123,
            "count" : 2016,
            "type" : "SCALAR"
        }
    ],
    "bufferViews" : [
        {
            "buffer" : 0,
            "byteLength" : 15864,
            "byteOffset" : 0
        },
        {
            "buffer" : 0,
            "byteLength" : 15864,
            "byteOffset" : 15864
        },
        {
            "buffer" : 0,
            "byteLength" : 10576,
            "byteOffset" : 31728
        },
        {
            "buffer" : 0,
            "byteLength" : 4032,
            "byteOffset" : 42304
        }
    ],
    "buffers" : [
        {
            "byteLength" : 46336,
            "uri" : "data:application/octet-stream;base64,"
        }
    ]
}
