{
    "asset" : {
        "generator" : "Khronos glTF Blender I/O v1.7.33",
        "version" : "2.0"
    },
    "scene" : 0,
    "scenes" : [
        {
            "name" : "Scene",
            "nodes" : [
                0
            ]
        }
    ],
    "nodes" : [
        {
            "mesh" : 0,
            "name" : "Bridge_Structure_Comp",
            "translation" : [
                21.47616195678711,
                0,
                0
            ]
        }
    ],
    "materials" : [
        {
            "doubleSided" : true,
            "name" : "Mat_Bridge_Structure_Comp",
            "pbrMetallicRoughness" : {}
        }
    ],
    "meshes" : [
        {
            "name" : "Cylinder.006",
            "primitives" : [
                {
                    "attributes" : {
                        "POSITION" : 0,
                        "NORMAL" : 1,
                        "TEXCOORD_0" : 2
                    },
                    "indices" : 3,
                    "material" : 0
                }
            ]
        }
    ],
    "accessors" : [
        {
            "bufferView" : 0,
            "componentType" : 5126,
            "count" : 582,
            "max" : [
                1.0676789283752441,
                0.5535784363746643,
                -1.2732200502796331e-06
            ],
            "min" : [
                -0.2457827776670456,
                -0.28380560874938965,
                -5.449493408203125
            ],
            "type" : "VEC3"
        },
        {
            "bufferView" : 1,
            "componentType" : 5126,
            "count" : 582,
            "type" : "VEC3"
        },
        {
            "bufferView" : 2,
            "componentType" : 5126,
            "count" : 582,
            "type" : "VEC2"
        },
        {
            "bufferView" : 3,
            "componentType" : 5123,
            "count" : 834,
            "type" : "SCALAR"
        }
    ],
    "bufferViews" : [
        {
            "buffer" : 0,
            "byteLength" : 6984,
            "byteOffset" : 0
        },
        {
            "buffer" : 0,
            "byteLength" : 6984,
            "byteOffset" : 6984
        },
        {
            "buffer" : 0,
            "byteLength" : 4656,
            "byteOffset" : 13968
        },
        {
            "buffer" : 0,
            "byteLength" : 1668,
            "byteOffset" : 18624
        }
    ],
    "buffers" : [
        {
            "byteLength" : 20292,
            "uri" : "data:application/octet-stream;base64,"
        }
    ]
}
