{
    "asset" : {
        "generator" : "Khronos glTF Blender I/O v1.7.33",
        "version" : "2.0"
    },
    "scene" : 0,
    "scenes" : [
        {
            "name" : "Scene",
            "nodes" : [
                0
            ]
        }
    ],
    "nodes" : [
        {
            "mesh" : 0,
            "name" : "Wall_Straight_Door_2Tile_Comp",
            "translation" : [
                -5.245208740234375e-06,
                -0.05669081211090088,
                -5.7479777336120605
            ]
        }
    ],
    "materials" : [
        {
            "doubleSided" : true,
            "name" : "Mat_Wall_Straight_Door_2Tile_Comp",
            "pbrMetallicRoughness" : {}
        }
    ],
    "meshes" : [
        {
            "name" : "Cube.065",
            "primitives" : [
                {
                    "attributes" : {
                        "POSITION" : 0,
                        "NORMAL" : 1,
                        "TEXCOORD_0" : 2
                    },
                    "indices" : 3,
                    "material" : 0
                }
            ]
        }
    ],
    "accessors" : [
        {
            "bufferView" : 0,
            "componentType" : 5126,
            "count" : 1288,
            "max" : [
                1.0000001192092896,
                0.4999999403953552,
                1.7524961037906905e-08
            ],
            "min" : [
                -0.9999999403953552,
                -0.5000000596046448,
                -1.869666576385498
            ],
            "type" : "VEC3"
        },
        {
            "bufferView" : 1,
            "componentType" : 5126,
            "count" : 1288,
            "type" : "VEC3"
        },
        {
            "bufferView" : 2,
            "componentType" : 5126,
            "count" : 1288,
            "type" : "VEC2"
        },
        {
            "bufferView" : 3,
            "componentType" : 5123,
            "count" : 1908,
            "type" : "SCALAR"
        }
    ],
    "bufferViews" : [
        {
            "buffer" : 0,
            "byteLength" : 15456,
            "byteOffset" : 0
        },
        {
            "buffer" : 0,
            "byteLength" : 15456,
            "byteOffset" : 15456
        },
        {
            "buffer" : 0,
            "byteLength" : 10304,
            "byteOffset" : 30912
        },
        {
            "buffer" : 0,
            "byteLength" : 3816,
            "byteOffset" : 41216
        }
    ],
    "buffers" : [
        {
            "byteLength" : 45032,
            "uri" : "data:application/octet-stream;base64,"
        }
    ]
}
