{
    "asset" : {
        "generator" : "Khronos glTF Blender I/O v1.7.33",
        "version" : "2.0"
    },
    "scene" : 0,
    "scenes" : [
        {
            "name" : "Scene",
            "nodes" : [
                0
            ]
        }
    ],
    "nodes" : [
        {
            "mesh" : 0,
            "name" : "Wall_Outer_Edge_Comp",
            "translation" : [
                15.82007122039795,
                0,
                7.8022661209106445
            ]
        }
    ],
    "materials" : [
        {
            "doubleSided" : true,
            "name" : "Mat_Wall_Outer_Edge_Comp",
            "pbrMetallicRoughness" : {}
        }
    ],
    "meshes" : [
        {
            "name" : "Cube.037",
            "primitives" : [
                {
                    "attributes" : {
                        "POSITION" : 0,
                        "NORMAL" : 1,
                        "TEXCOORD_0" : 2
                    },
                    "indices" : 3,
                    "material" : 0
                }
            ]
        }
    ],
    "accessors" : [
        {
            "bufferView" : 0,
            "componentType" : 5126,
            "count" : 247,
            "max" : [
                1.5,
                0.5000000596046448,
                1.5
            ],
            "min" : [
                -1.5,
                -0.4999999403953552,
                -1.6093225479125977
            ],
            "type" : "VEC3"
        },
        {
            "bufferView" : 1,
            "componentType" : 5126,
            "count" : 247,
            "type" : "VEC3"
        },
        {
            "bufferView" : 2,
            "componentType" : 5126,
            "count" : 247,
            "type" : "VEC2"
        },
        {
            "bufferView" : 3,
            "componentType" : 5123,
            "count" : 384,
            "type" : "SCALAR"
        }
    ],
    "bufferViews" : [
        {
            "buffer" : 0,
            "byteLength" : 2964,
            "byteOffset" : 0
        },
        {
            "buffer" : 0,
            "byteLength" : 2964,
            "byteOffset" : 2964
        },
        {
            "buffer" : 0,
            "byteLength" : 1976,
            "byteOffset" : 5928
        },
        {
            "buffer" : 0,
            "byteLength" : 768,
            "byteOffset" : 7904
        }
    ],
    "buffers" : [
        {
            "byteLength" : 8672,
            "uri" : "data:application/octet-stream;base64,"
        }
    ]
}
