{
    "asset" : {
        "generator" : "Khronos glTF Blender I/O v1.7.33",
        "version" : "2.0"
    },
    "scene" : 0,
    "scenes" : [
        {
            "name" : "Scene",
            "nodes" : [
                0
            ]
        }
    ],
    "nodes" : [
        {
            "mesh" : 0,
            "name" : "Tile_Water_Comp",
            "translation" : [
                3.714717388153076,
                0,
                -1.3747034072875977
            ]
        }
    ],
    "materials" : [
        {
            "doubleSided" : true,
            "name" : "Mat_Tile_Water_Comp",
            "pbrMetallicRoughness" : {}
        }
    ],
    "meshes" : [
        {
            "name" : "Cube.071",
            "primitives" : [
                {
                    "attributes" : {
                        "POSITION" : 0,
                        "NORMAL" : 1,
                        "TEXCOORD_0" : 2
                    },
                    "indices" : 3,
                    "material" : 0
                }
            ]
        }
    ],
    "accessors" : [
        {
            "bufferView" : 0,
            "componentType" : 5126,
            "count" : 400,
            "max" : [
                0.4999995827674866,
                0.49999988079071045,
                0.09559731185436249
            ],
            "min" : [
                -0.5000003576278687,
                -0.5000000596046448,
                -0.09275264292955399
            ],
            "type" : "VEC3"
        },
        {
            "bufferView" : 1,
            "componentType" : 5126,
            "count" : 400,
            "type" : "VEC3"
        },
        {
            "bufferView" : 2,
            "componentType" : 5126,
            "count" : 400,
            "type" : "VEC2"
        },
        {
            "bufferView" : 3,
            "componentType" : 5123,
            "count" : 600,
            "type" : "SCALAR"
        }
    ],
    "bufferViews" : [
        {
            "buffer" : 0,
            "byteLength" : 4800,
            "byteOffset" : 0
        },
        {
            "buffer" : 0,
            "byteLength" : 4800,
            "byteOffset" : 4800
        },
        {
            "buffer" : 0,
            "byteLength" : 3200,
            "byteOffset" : 9600
        },
        {
            "buffer" : 0,
            "byteLength" : 1200,
            "byteOffset" : 12800
        }
    ],
    "buffers" : [
        {
            "byteLength" : 14000,
            "uri" : "data:application/octet-stream;base64,"
        }
    ]
}
