{
    "asset" : {
        "generator" : "Khronos glTF Blender I/O v1.7.33",
        "version" : "2.0"
    },
    "scene" : 0,
    "scenes" : [
        {
            "name" : "Scene",
            "nodes" : [
                0
            ]
        }
    ],
    "nodes" : [
        {
            "mesh" : 0,
            "name" : "GumJee_Comp",
            "translation" : [
                -8.836282730102539,
                0,
                5.755658149719238
            ]
        }
    ],
    "materials" : [
        {
            "doubleSided" : true,
            "name" : "Mat_GumJee_Comp",
            "pbrMetallicRoughness" : {}
        }
    ],
    "meshes" : [
        {
            "name" : "Cube.098",
            "primitives" : [
                {
                    "attributes" : {
                        "POSITION" : 0,
                        "NORMAL" : 1,
                        "TEXCOORD_0" : 2
                    },
                    "indices" : 3,
                    "material" : 0
                }
            ]
        }
    ],
    "accessors" : [
        {
            "bufferView" : 0,
            "componentType" : 5126,
            "count" : 2442,
            "max" : [
                3.294623374938965,
                1.265236735343933,
                -1.5380244633433904e-07
            ],
            "min" : [
                -3.294623374938965,
                -0.9120964407920837,
                -5.108386993408203
            ],
            "type" : "VEC3"
        },
        {
            "bufferView" : 1,
            "componentType" : 5126,
            "count" : 2442,
            "type" : "VEC3"
        },
        {
            "bufferView" : 2,
            "componentType" : 5126,
            "count" : 2442,
            "type" : "VEC2"
        },
        {
            "bufferView" : 3,
            "componentType" : 5123,
            "count" : 3648,
            "type" : "SCALAR"
        }
    ],
    "bufferViews" : [
        {
            "buffer" : 0,
            "byteLength" : 29304,
            "byteOffset" : 0
        },
        {
            "buffer" : 0,
            "byteLength" : 29304,
            "byteOffset" : 29304
        },
        {
            "buffer" : 0,
            "byteLength" : 19536,
            "byteOffset" : 58608
        },
        {
            "buffer" : 0,
            "byteLength" : 7296,
            "byteOffset" : 78144
        }
    ],
    "buffers" : [
        {
            "byteLength" : 85440,
            "uri" : "data:application/octet-stream;base64,"
        }
    ]
}
