{
    "asset" : {
        "generator" : "Khronos glTF Blender I/O v1.7.33",
        "version" : "2.0"
    },
    "scene" : 0,
    "scenes" : [
        {
            "name" : "Scene",
            "nodes" : [
                0
            ]
        }
    ],
    "nodes" : [
        {
            "mesh" : 0,
            "name" : "Bridge_Fence_Comp",
            "translation" : [
                25.009885787963867,
                0,
                0
            ]
        }
    ],
    "materials" : [
        {
            "doubleSided" : true,
            "name" : "Mat_Bridge_Fence_Comp",
            "pbrMetallicRoughness" : {}
        }
    ],
    "meshes" : [
        {
            "name" : "Plane.411",
            "primitives" : [
                {
                    "attributes" : {
                        "POSITION" : 0,
                        "NORMAL" : 1,
                        "TEXCOORD_0" : 2
                    },
                    "indices" : 3,
                    "material" : 0
                }
            ]
        }
    ],
    "accessors" : [
        {
            "bufferView" : 0,
            "componentType" : 5126,
            "count" : 234,
            "max" : [
                0.5,
                0.5,
                2.1855694143368964e-08
            ],
            "min" : [
                -0.5,
                -0.5000000596046448,
                -1.0391818284988403
            ],
            "type" : "VEC3"
        },
        {
            "bufferView" : 1,
            "componentType" : 5126,
            "count" : 234,
            "type" : "VEC3"
        },
        {
            "bufferView" : 2,
            "componentType" : 5126,
            "count" : 234,
            "type" : "VEC2"
        },
        {
            "bufferView" : 3,
            "componentType" : 5123,
            "count" : 360,
            "type" : "SCALAR"
        }
    ],
    "bufferViews" : [
        {
            "buffer" : 0,
            "byteLength" : 2808,
            "byteOffset" : 0
        },
        {
            "buffer" : 0,
            "byteLength" : 2808,
            "byteOffset" : 2808
        },
        {
            "buffer" : 0,
            "byteLength" : 1872,
            "byteOffset" : 5616
        },
        {
            "buffer" : 0,
            "byteLength" : 720,
            "byteOffset" : 7488
        }
    ],
    "buffers" : [
        {
            "byteLength" : 8208,
            "uri" : "data:application/octet-stream;base64,"
        }
    ]
}
