{
    "asset" : {
        "generator" : "Khronos glTF Blender I/O v1.7.33",
        "version" : "2.0"
    },
    "scene" : 0,
    "scenes" : [
        {
            "name" : "Scene",
            "nodes" : [
                0
            ]
        }
    ],
    "nodes" : [
        {
            "mesh" : 0,
            "name" : "Active_BomberAirPlain_Comp",
            "translation" : [
                -6.768862724304199,
                0.015351771377027035,
                5.682833671569824
            ]
        }
    ],
    "materials" : [
        {
            "doubleSided" : true,
            "name" : "Mat_Active_BomberAirPlain_Comp",
            "pbrMetallicRoughness" : {}
        }
    ],
    "meshes" : [
        {
            "name" : "Cube.096",
            "primitives" : [
                {
                    "attributes" : {
                        "POSITION" : 0,
                        "NORMAL" : 1,
                        "TEXCOORD_0" : 2
                    },
                    "indices" : 3,
                    "material" : 0
                }
            ]
        }
    ],
    "accessors" : [
        {
            "bufferView" : 0,
            "componentType" : 5126,
            "count" : 2129,
            "max" : [
                0.2660791575908661,
                0.4482717216014862,
                0.05536666885018349
            ],
            "min" : [
                -0.2660791873931885,
                -0.2653692960739136,
                -0.11269276589155197
            ],
            "type" : "VEC3"
        },
        {
            "bufferView" : 1,
            "componentType" : 5126,
            "count" : 2129,
            "type" : "VEC3"
        },
        {
            "bufferView" : 2,
            "componentType" : 5126,
            "count" : 2129,
            "type" : "VEC2"
        },
        {
            "bufferView" : 3,
            "componentType" : 5123,
            "count" : 3198,
            "type" : "SCALAR"
        }
    ],
    "bufferViews" : [
        {
            "buffer" : 0,
            "byteLength" : 25548,
            "byteOffset" : 0
        },
        {
            "buffer" : 0,
            "byteLength" : 25548,
            "byteOffset" : 25548
        },
        {
            "buffer" : 0,
            "byteLength" : 17032,
            "byteOffset" : 51096
        },
        {
            "buffer" : 0,
            "byteLength" : 6396,
            "byteOffset" : 68128
        }
    ],
    "buffers" : [
        {
            "byteLength" : 74524,
            "uri" : "data:application/octet-stream;base64,"
        }
    ]
}
