{
    "asset" : {
        "generator" : "Khronos glTF Blender I/O v1.7.33",
        "version" : "2.0"
    },
    "scene" : 0,
    "scenes" : [
        {
            "name" : "Scene",
            "nodes" : [
                0
            ]
        }
    ],
    "nodes" : [
        {
            "mesh" : 0,
            "name" : "Bush_Comp",
            "translation" : [
                6.985871315002441,
                0,
                -1.3747034072875977
            ]
        }
    ],
    "materials" : [
        {
            "doubleSided" : true,
            "name" : "Mat_Bush_Comp",
            "pbrMetallicRoughness" : {}
        }
    ],
    "meshes" : [
        {
            "name" : "Cube",
            "primitives" : [
                {
                    "attributes" : {
                        "POSITION" : 0,
                        "NORMAL" : 1,
                        "TEXCOORD_0" : 2
                    },
                    "indices" : 3,
                    "material" : 0
                }
            ]
        }
    ],
    "accessors" : [
        {
            "bufferView" : 0,
            "componentType" : 5126,
            "count" : 1216,
            "max" : [
                0.7900993824005127,
                0.8483442664146423,
                2.1855694143368964e-08
            ],
            "min" : [
                -0.8568915128707886,
                -0.8825603127479553,
                -2.4003429412841797
            ],
            "type" : "VEC3"
        },
        {
            "bufferView" : 1,
            "componentType" : 5126,
            "count" : 1216,
            "type" : "VEC3"
        },
        {
            "bufferView" : 2,
            "componentType" : 5126,
            "count" : 1216,
            "type" : "VEC2"
        },
        {
            "bufferView" : 3,
            "componentType" : 5123,
            "count" : 1362,
            "type" : "SCALAR"
        }
    ],
    "bufferViews" : [
        {
            "buffer" : 0,
            "byteLength" : 14592,
            "byteOffset" : 0
        },
        {
            "buffer" : 0,
            "byteLength" : 14592,
            "byteOffset" : 14592
        },
        {
            "buffer" : 0,
            "byteLength" : 9728,
            "byteOffset" : 29184
        },
        {
            "buffer" : 0,
            "byteLength" : 2724,
            "byteOffset" : 38912
        }
    ],
    "buffers" : [
        {
            "byteLength" : 41636,
            "uri" : "data:application/octet-stream;base64,"
        }
    ]
}
