{
    "asset" : {
        "generator" : "Khronos glTF Blender I/O v1.7.33",
        "version" : "2.0"
    },
    "scene" : 0,
    "scenes" : [
        {
            "name" : "Scene",
            "nodes" : [
                0
            ]
        }
    ],
    "nodes" : [
        {
            "mesh" : 0,
            "name" : "Tree_Oak_Tex_Comp"
        }
    ],
    "materials" : [
        {
            "doubleSided" : false,
            "name" : "Mat_Tree_Oak_Comp",
            "pbrMetallicRoughness" : {}
        }
    ],
    "meshes" : [
        {
            "name" : "Cylinder",
            "primitives" : [
                {
                    "attributes" : {
                        "POSITION" : 0,
                        "NORMAL" : 1,
                        "TEXCOORD_0" : 2
                    },
                    "indices" : 3,
                    "material" : 0
                }
            ]
        }
    ],
    "accessors" : [
        {
            "bufferView" : 0,
            "componentType" : 5126,
            "count" : 2668,
            "max" : [
                1.0196181535720825,
                0.7303282618522644,
                -5.364418029785156e-07
            ],
            "min" : [
                -1.2723819017410278,
                -0.7643384337425232,
                -2.4733335971832275
            ],
            "type" : "VEC3"
        },
        {
            "bufferView" : 1,
            "componentType" : 5126,
            "count" : 2668,
            "type" : "VEC3"
        },
        {
            "bufferView" : 2,
            "componentType" : 5126,
            "count" : 2668,
            "type" : "VEC2"
        },
        {
            "bufferView" : 3,
            "componentType" : 5123,
            "count" : 3270,
            "type" : "SCALAR"
        }
    ],
    "bufferViews" : [
        {
            "buffer" : 0,
            "byteLength" : 32016,
            "byteOffset" : 0
        },
        {
            "buffer" : 0,
            "byteLength" : 32016,
            "byteOffset" : 32016
        },
        {
            "buffer" : 0,
            "byteLength" : 21344,
            "byteOffset" : 64032
        },
        {
            "buffer" : 0,
            "byteLength" : 6540,
            "byteOffset" : 85376
        }
    ],
    "buffers" : [
        {
            "byteLength" : 91916,
            "uri" : "data:application/octet-stream;base64,"
        }
    ]
}
