{
    "asset" : {
        "generator" : "Khronos glTF Blender I/O v1.7.33",
        "version" : "2.0"
    },
    "scene" : 0,
    "scenes" : [
        {
            "name" : "Scene",
            "nodes" : [
                0
            ]
        }
    ],
    "nodes" : [
        {
            "mesh" : 0,
            "name" : "Wall_Edge_RightAngle_Comp",
            "translation" : [
                4.887176036834717,
                -0.05669045448303223,
                -15.071879386901855
            ]
        }
    ],
    "materials" : [
        {
            "doubleSided" : true,
            "name" : "Mat_Wall_Edge_RightAngle_Comp",
            "pbrMetallicRoughness" : {}
        }
    ],
    "meshes" : [
        {
            "name" : "Cube.061",
            "primitives" : [
                {
                    "attributes" : {
                        "POSITION" : 0,
                        "NORMAL" : 1,
                        "TEXCOORD_0" : 2
                    },
                    "indices" : 3,
                    "material" : 0
                }
            ]
        }
    ],
    "accessors" : [
        {
            "bufferView" : 0,
            "componentType" : 5126,
            "count" : 3261,
            "max" : [
                0.49999991059303284,
                0.5000013113021851,
                -3.951980033889413e-06
            ],
            "min" : [
                -0.5000000596046448,
                -0.5135144591331482,
                -3.3923373222351074
            ],
            "type" : "VEC3"
        },
        {
            "bufferView" : 1,
            "componentType" : 5126,
            "count" : 3261,
            "type" : "VEC3"
        },
        {
            "bufferView" : 2,
            "componentType" : 5126,
            "count" : 3261,
            "type" : "VEC2"
        },
        {
            "bufferView" : 3,
            "componentType" : 5123,
            "count" : 4902,
            "type" : "SCALAR"
        }
    ],
    "bufferViews" : [
        {
            "buffer" : 0,
            "byteLength" : 39132,
            "byteOffset" : 0
        },
        {
            "buffer" : 0,
            "byteLength" : 39132,
            "byteOffset" : 39132
        },
        {
            "buffer" : 0,
            "byteLength" : 26088,
            "byteOffset" : 78264
        },
        {
            "buffer" : 0,
            "byteLength" : 9804,
            "byteOffset" : 104352
        }
    ],
    "buffers" : [
        {
            "byteLength" : 114156,
            "uri" : "data:application/octet-stream;base64,"
        }
    ]
}
