{
    "asset" : {
        "generator" : "Khronos glTF Blender I/O v1.7.33",
        "version" : "2.0"
    },
    "scene" : 0,
    "scenes" : [
        {
            "name" : "Scene",
            "nodes" : [
                0
            ]
        }
    ],
    "nodes" : [
        {
            "mesh" : 0,
            "name" : "Wall_Outer_Comp",
            "translation" : [
                11.947959899902344,
                0,
                7.8022661209106445
            ]
        }
    ],
    "materials" : [
        {
            "doubleSided" : true,
            "name" : "Mat_Wall_Outer_Comp",
            "pbrMetallicRoughness" : {}
        }
    ],
    "meshes" : [
        {
            "name" : "Cube.039",
            "primitives" : [
                {
                    "attributes" : {
                        "POSITION" : 0,
                        "NORMAL" : 1,
                        "TEXCOORD_0" : 2
                    },
                    "indices" : 3,
                    "material" : 0
                }
            ]
        }
    ],
    "accessors" : [
        {
            "bufferView" : 0,
            "componentType" : 5126,
            "count" : 450,
            "max" : [
                1.5,
                0.5301781892776489,
                1.5
            ],
            "min" : [
                -1.5,
                -0.4999999403953552,
                -1.6190366744995117
            ],
            "type" : "VEC3"
        },
        {
            "bufferView" : 1,
            "componentType" : 5126,
            "count" : 450,
            "type" : "VEC3"
        },
        {
            "bufferView" : 2,
            "componentType" : 5126,
            "count" : 450,
            "type" : "VEC2"
        },
        {
            "bufferView" : 3,
            "componentType" : 5123,
            "count" : 696,
            "type" : "SCALAR"
        }
    ],
    "bufferViews" : [
        {
            "buffer" : 0,
            "byteLength" : 5400,
            "byteOffset" : 0
        },
        {
            "buffer" : 0,
            "byteLength" : 5400,
            "byteOffset" : 5400
        },
        {
            "buffer" : 0,
            "byteLength" : 3600,
            "byteOffset" : 10800
        },
        {
            "buffer" : 0,
            "byteLength" : 1392,
            "byteOffset" : 14400
        }
    ],
    "buffers" : [
        {
            "byteLength" : 15792,
            "uri" : "data:application/octet-stream;base64,"
        }
    ]
}
