{
    "asset" : {
        "generator" : "Khronos glTF Blender I/O v1.7.33",
        "version" : "2.0"
    },
    "scene" : 0,
    "scenes" : [
        {
            "name" : "Scene",
            "nodes" : [
                0
            ]
        }
    ],
    "nodes" : [
        {
            "mesh" : 0,
            "name" : "Wall_Straight_2Tile_Comp",
            "translation" : [
                2.7689669132232666,
                -0.05669069290161133,
                -4.0234479904174805
            ]
        }
    ],
    "materials" : [
        {
            "doubleSided" : true,
            "name" : "Mat_Wall_Straight_2Tile_Comp",
            "pbrMetallicRoughness" : {}
        }
    ],
    "meshes" : [
        {
            "name" : "Cube.063",
            "primitives" : [
                {
                    "attributes" : {
                        "POSITION" : 0,
                        "NORMAL" : 1,
                        "TEXCOORD_0" : 2
                    },
                    "indices" : 3,
                    "material" : 0
                }
            ]
        }
    ],
    "accessors" : [
        {
            "bufferView" : 0,
            "componentType" : 5126,
            "count" : 1492,
            "max" : [
                1.0000004768371582,
                0.4999997019767761,
                1.130191435549932e-06
            ],
            "min" : [
                -0.999999463558197,
                -0.5000002384185791,
                -1.8696657419204712
            ],
            "type" : "VEC3"
        },
        {
            "bufferView" : 1,
            "componentType" : 5126,
            "count" : 1492,
            "type" : "VEC3"
        },
        {
            "bufferView" : 2,
            "componentType" : 5126,
            "count" : 1492,
            "type" : "VEC2"
        },
        {
            "bufferView" : 3,
            "componentType" : 5123,
            "count" : 2238,
            "type" : "SCALAR"
        }
    ],
    "bufferViews" : [
        {
            "buffer" : 0,
            "byteLength" : 17904,
            "byteOffset" : 0
        },
        {
            "buffer" : 0,
            "byteLength" : 17904,
            "byteOffset" : 17904
        },
        {
            "buffer" : 0,
            "byteLength" : 11936,
            "byteOffset" : 35808
        },
        {
            "buffer" : 0,
            "byteLength" : 4476,
            "byteOffset" : 47744
        }
    ],
    "buffers" : [
        {
            "byteLength" : 52220,
            "uri" : "data:application/octet-stream;base64,"
        }
    ]
}
